name C:\Users\u0101727\Documents\MyRepositories\upper-imu-dc\Results\main_mocap_tracking\Case_10\FLX01_linearAccelerations_bodyFrame.mot
datacolumns 4
datarows 117
range 0.51000000 1.67000000
endheader 
time	radius_imu_x	radius_imu_y	radius_imu_z	
          0.51000000	         -2.80157617	          9.82343283	          6.12813941	
          0.52000000	         -1.81528336	          9.64046840	          4.83520475	
          0.53000000	         -1.27447917	          9.61928303	          3.93802936	
          0.54000000	         -0.88894588	          9.65493686	          3.21809937	
          0.55000000	         -0.14116385	          9.47179402	          2.68092097	
          0.56000000	         -0.18306959	          9.61554502	          2.80204977	
          0.57000000	         -0.81676930	          9.61308729	          3.30863946	
          0.58000000	         -0.92044559	          9.54147593	          3.72205357	
          0.59000000	         -1.03522146	          9.50079726	          3.95934703	
          0.60000000	         -1.19670161	          9.48675867	          4.06580403	
          0.61000000	         -1.42693171	          9.48747472	          4.10807680	
          0.62000000	         -1.68916144	          9.50675677	          4.13229969	
          0.63000000	         -1.93027838	          9.54984174	          4.15226082	
          0.64000000	         -2.09871427	          9.61950988	          4.15973678	
          0.65000000	         -2.16792554	          9.71187424	          4.13811459	
          0.66000000	         -2.15040087	          9.81612656	          4.07408672	
          0.67000000	         -2.09586829	          9.91735245	          3.96400948	
          0.68000000	         -2.07253226	         10.00117511	          3.81514905	
          0.69000000	         -2.14064627	         10.05813993	          3.64329270	
          0.70000000	         -2.33207378	         10.08586426	          3.46820074	
          0.71000000	         -2.64471792	         10.08855479	          3.30825961	
          0.72000000	         -3.05077093	         10.07493757	          3.17607563	
          0.73000000	         -3.51094299	         10.05588062	          3.07674385	
          0.74000000	         -3.98719156	         10.04219354	          3.00932602	
          0.75000000	         -4.45026690	         10.04304651	          2.97018396	
          0.76000000	         -4.88232218	         10.06462020	          2.95588094	
          0.77000000	         -5.27699856	         10.10916283	          2.96376802	
          0.78000000	         -5.63878496	         10.17425632	          2.99031114	
          0.79000000	         -5.98159237	         10.25201074	          3.02900290	
          0.80000000	         -6.32495606	         10.32946232	          3.06982184	
          0.81000000	         -6.68740412	         10.39192681	          3.10093836	
          0.82000000	         -7.07862135	         10.42905739	          3.11179637	
          0.83000000	         -7.49315829	         10.44035584	          3.09597272	
          0.84000000	         -7.90871403	         10.43684160	          3.05254510	
          0.85000000	         -8.29132842	         10.43825926	          2.98547439	
          0.86000000	         -8.60656448	         10.46742167	          2.90131593	
          0.87000000	         -8.83180029	         10.54369217	          2.80623474	
          0.88000000	         -8.96367406	         10.67735640	          2.70355045	
          0.89000000	         -9.01739210	         10.86692356	          2.59265994	
          0.90000000	         -9.01854755	         11.10107969	          2.46965065	
          0.91000000	         -8.99173926	         11.36473763	          2.32904306	
          0.92000000	         -8.94996340	         11.64505995	          2.16624516	
          0.93000000	         -8.88997659	         11.93301503	          1.97857045	
          0.94000000	         -8.79182770	         12.22142355	          1.76570270	
          0.95000000	         -8.62081688	         12.50398560	          1.53064302	
          0.96000000	         -8.33061533	         12.77650312	          1.28242574	
          0.97000000	         -7.87193333	         13.03780270	          1.03853613	
          0.98000000	         -7.20686153	         13.28815997	          0.82548295	
          0.99000000	         -6.32901787	         13.52717613	          0.67647439	
          1.00000000	         -5.27313534	         13.74509083	          0.61081350	
          1.01000000	         -4.17957589	         13.94337269	          0.67065936	
          1.02000000	         -3.12076001	         14.12317611	          0.85009268	
          1.03000000	         -2.19044760	         14.24862215	          1.10448722	
          1.04000000	         -1.40496114	         14.31195600	          1.41714573	
          1.05000000	         -0.79482599	         14.28961579	          1.74920667	
          1.06000000	         -0.34762397	         14.18178085	          2.07975908	
          1.07000000	          0.02154700	         13.98724389	          2.38409942	
          1.08000000	          0.37756277	         13.64484297	          2.59512008	
          1.09000000	          0.77803865	         13.24780028	          2.79025483	
          1.10000000	          1.31829485	         12.81090681	          2.98816705	
          1.11000000	          2.08615757	         12.35365764	          3.20028782	
          1.12000000	          3.13715371	         11.87578690	          3.43293264	
          1.13000000	          4.47897158	         11.36078548	          3.68887619	
          1.14000000	          6.06785706	         10.78360746	          3.97032326	
          1.15000000	          7.81847323	         10.12229827	          4.28101025	
          1.16000000	          9.62089999	          9.36663278	          4.62655835	
          1.17000000	         11.35878133	          8.52086022	          5.01377929	
          1.18000000	         12.92553448	          7.60543609	          5.44950232	
          1.19000000	         14.23769004	          6.65733220	          5.94090610	
          1.20000000	         15.26947086	          5.71609590	          6.49160705	
          1.21000000	         16.01213272	          4.84981583	          7.11033510	
          1.22000000	         16.49870789	          4.02551580	          7.75719072	
          1.23000000	         16.60701420	          3.41744369	          8.43875607	
          1.24000000	         16.57524515	          3.11983318	          9.40498268	
          1.25000000	         16.15889650	          2.31260988	         10.00161848	
          1.26000000	         14.96770513	          2.61597730	         11.06666950	
          1.27000000	         13.42973760	          3.63093758	         11.88492436	
          1.28000000	         11.46971811	          4.61195481	         12.27922289	
          1.29000000	          9.34314916	          5.41102206	         12.18342179	
          1.30000000	          7.23984558	          5.90225813	         11.70641538	
          1.31000000	          5.32655329	          6.12300127	         11.00368738	
          1.32000000	          3.69794672	          6.15038482	         10.19896994	
          1.33000000	          2.37170553	          6.05541888	          9.37909371	
          1.34000000	          1.30926731	          5.88989599	          8.59842817	
          1.35000000	          0.43969846	          5.68160227	          7.88653345	
          1.36000000	         -0.31094588	          5.44381649	          7.26241893	
          1.37000000	         -0.99787584	          5.18190894	          6.74196819	
          1.38000000	         -1.64317554	          4.89957916	          6.34044624	
          1.39000000	         -2.22963094	          4.60396032	          6.07099436	
          1.40000000	         -2.71119337	          4.30723902	          5.94013904	
          1.41000000	         -3.03732923	          4.02597676	          5.94305100	
          1.42000000	         -3.21813810	          3.77150557	          6.06559287	
          1.43000000	         -3.23015469	          3.54235563	          6.25999563	
          1.44000000	         -3.37006222	          3.29662270	          6.51403706	
          1.45000000	         -3.47307079	          3.15212181	          6.78469898	
          1.46000000	         -3.74746061	          2.99299909	          7.03776393	
          1.47000000	         -4.14393342	          2.83813290	          7.26722309	
          1.48000000	         -4.60497254	          2.68449757	          7.46797056	
          1.49000000	         -5.07649009	          2.51439833	          7.64047377	
          1.50000000	         -5.49544894	          2.34424250	          7.78778314	
          1.51000000	         -5.82654166	          2.16593669	          7.91637362	
          1.52000000	         -6.04341441	          1.98184319	          8.02771078	
          1.53000000	         -6.14791402	          1.79249344	          8.12425229	
          1.54000000	         -6.15618885	          1.60044740	          8.21039782	
          1.55000000	         -6.07698219	          1.41108202	          8.29261694	
          1.56000000	         -5.90734813	          1.23228960	          8.37746948	
          1.57000000	         -5.64823769	          1.07166398	          8.46819639	
          1.58000000	         -5.31809664	          0.93286694	          8.56327177	
          1.59000000	         -4.94893926	          0.81381071	          8.65813959	
          1.60000000	         -4.57456143	          0.70779941	          8.74785456	
          1.61000000	         -4.22985688	          0.60676340	          8.82765592	
          1.62000000	         -3.95454621	          0.50494553	          8.89254651	
          1.63000000	         -3.78174462	          0.40162201	          8.93895330	
          1.64000000	         -3.71641462	          0.30161884	          8.96785469	
          1.65000000	         -3.72498121	          0.21298830	          8.98601027	
          1.66000000	         -3.74782532	          0.14268880	          9.00352378	
          1.67000000	         -3.73161602	          0.09237318	          9.02863639	
